<?xml version="1.0" encoding="utf-8"?>
<!-- Generator: Adobe Illustrator 23.0.1, SVG Export Plug-In . SVG Version: 6.00 Build 0)  -->
<svg version="1.1" id="Layer_1" xmlns="http://www.w3.org/2000/svg" xmlns:xlink="http://www.w3.org/1999/xlink" x="0px" y="0px"
	 viewBox="0 0 189 189" style="enable-background:new 0 0 189 189;" xml:space="preserve">
<g>
	<g id="_x34_3">
		<g>
			<path d="M129.77,65.13h-69c-7.26,0-13.14,5.88-13.14,13.14l7.12,75.6c0,7.26,5.88,13.15,13.14,13.15h55.87
				c7.26,0,13.14-5.89,13.14-13.15l6.03-75.6C142.92,71.01,137.03,65.13,129.77,65.13z M77.75,144c0,3.62-2.94,6.58-6.57,6.58
				c-3.63,0-6.57-2.96-6.57-6.58V84.82c0-3.62,2.94-6.56,6.57-6.56c3.63,0,6.57,2.93,6.57,6.56V144z M100.76,144
				c0,3.62-2.94,6.58-6.57,6.58c-3.63,0-6.57-2.96-6.57-6.58V84.82c0-3.62,2.94-6.56,6.57-6.56c3.63,0,6.57,2.93,6.57,6.56V144z
				 M123.76,144c0,3.62-2.94,6.58-6.57,6.58c-3.63,0-6.57-2.96-6.57-6.58V84.82c0-3.62,2.94-6.56,6.57-6.56
				c3.63,0,6.57,2.93,6.57,6.56V144z M57.26,58.55l79.56-20.46c4.4-1.13,7.04-5.61,5.91-10c-1.14-4.4-5.61-7.04-10-5.9l-24.51,6.3
				c-2.26-3.36-6.39-5.15-10.54-4.09l-9.55,2.47c-4.15,1.06-6.9,4.62-7.27,8.65l-27.7,7.13c-4.39,1.12-7.04,5.61-5.91,9.99
				C48.39,57.03,52.87,59.67,57.26,58.55z"/>
		</g>
	</g>
</g>
</svg>
