<?xml version="1.0" encoding="utf-8"?>
<!-- Generator: Adobe Illustrator 23.0.1, SVG Export Plug-In . SVG Version: 6.00 Build 0)  -->
<svg version="1.1" id="Layer_1" xmlns="http://www.w3.org/2000/svg" xmlns:xlink="http://www.w3.org/1999/xlink" x="0px" y="0px"
	 viewBox="0 0 189 189" style="enable-background:new 0 0 189 189;" xml:space="preserve">
<style type="text/css">
	.st0{fill:#202020;}
</style>
<g>
	<g>
		<g>
			<g>
				<g>
					<path class="st0" d="M148.9,68.78c-0.52,0.35-1.32,1.45-0.75,1.6l1.81-1.49L148.9,68.78z"/>
					<path class="st0" d="M148.52,74.31c1.21-0.4,3.15-1.13,4.47-2.87c-2.06,1.01-1.52,0.27-3.87,1.65
						c-0.54-0.16-0.1-1.16,0.55-1.72c-0.53,0.29-0.27-0.94-1.45-0.05c-0.68,1.77-0.23,2.34,1.46,1.94
						C149.43,73.76,148.86,74.05,148.52,74.31z"/>
					<path class="st0" d="M155.47,118.17l0.31-0.24C155.62,117.98,155.52,118.06,155.47,118.17z"/>
					<path class="st0" d="M143.76,141.82c0.09-0.19-0.04-0.4-0.19-0.54C143.57,141.52,143.58,141.73,143.76,141.82z"/>
					<path class="st0" d="M138.97,143.17c0.11-0.01,0.19-0.04,0.28-0.06C139.04,143.02,138.89,143,138.97,143.17z"/>
					<path class="st0" d="M155.47,118.17l-0.82,0.61C155.38,118.95,155.25,118.49,155.47,118.17z"/>
					<path class="st0" d="M157.23,76.52c-0.19-0.1-0.46-0.12-0.77-0.09c0.16,0.08,0.31,0.16,0.45,0.26
						C157.01,76.63,157.11,76.59,157.23,76.52z"/>
					<path class="st0" d="M154.16,106.17l-0.01-0.22c-0.27-0.05-0.59-0.09-0.95-0.13L154.16,106.17z"/>
					<path class="st0" d="M152.78,97.19c-0.05,0.21,1.9-0.06,2.76-0.13c-0.82,0.02-1.22-0.06-1.41-0.21
						C153.76,96.92,153.33,97.03,152.78,97.19z"/>
					<path class="st0" d="M151.49,82.52l-0.36-0.1C151.23,82.44,151.36,82.5,151.49,82.52z"/>
					<path class="st0" d="M153.71,112.62c-0.29,0-0.55,0.02-0.71,0.04C153.25,112.68,153.49,112.66,153.71,112.62z"/>
					<path class="st0" d="M35.13,96.39c-0.13-0.05-0.22-0.06-0.34-0.1C34.97,96.4,35.1,96.45,35.13,96.39z"/>
					<path class="st0" d="M23.2,104.76l-0.07-0.17c-0.36-0.08-0.72-0.16-1.08-0.22L23.2,104.76z"/>
					<path class="st0" d="M131.76,145.44c0.02,0.01,0.03,0.01,0.04,0.02C131.84,145.17,131.78,145.26,131.76,145.44z"/>
					<path class="st0" d="M98.89,103.62c-1.63,1.14-2.43-1.21-4.19,0.41C95.44,103.81,97.89,104.9,98.89,103.62z"/>
					<path class="st0" d="M157.16,76.91c0.1,0.12,0.19,0.24,0.26,0.39C157.37,77.08,157.29,76.96,157.16,76.91z"/>
					<path class="st0" d="M94.69,104.03l-0.02,0l-0.17,0.17C94.59,104.13,94.63,104.09,94.69,104.03z"/>
					<path class="st0" d="M118.52,149.27c-0.06,0.34-0.07,0.61-0.07,0.86C118.5,149.93,118.52,149.69,118.52,149.27z"/>
					<path class="st0" d="M129.78,150.8l-0.39-0.14C129.57,150.79,129.68,150.81,129.78,150.8z"/>
					<path class="st0" d="M112.65,149.53c-0.04-0.21,0.08-0.44-0.24-0.37c-0.05,0.09-0.07,0.16-0.1,0.23
						C112.53,149.23,112.69,149.18,112.65,149.53z"/>
					<path class="st0" d="M108.08,144.82c-0.1,0.12-0.16,0.22-0.24,0.33c0.07,0.04,0.15,0.08,0.22,0.12L108.08,144.82z"/>
					<path class="st0" d="M43.53,74.76c-0.56-0.14-1.14-0.36-1.7-0.59C43.09,74.77,42.95,76,43.53,74.76z"/>
					<path class="st0" d="M156.29,77.11c0.45-0.21,0.7-0.27,0.87-0.2c-0.08-0.08-0.17-0.16-0.26-0.22
						C156.64,76.82,156.4,76.96,156.29,77.11z"/>
					<path class="st0" d="M103.1,161.79c-0.45-0.47-0.87-0.95-1.3-1.42C102.09,160.85,102.56,161.37,103.1,161.79z"/>
					<path class="st0" d="M73.14,53.31l-0.3-0.07C72.84,53.34,72.92,53.37,73.14,53.31z"/>
					<path class="st0" d="M97.74,156.73c0.32-0.7,0.42-1.21,0.41-1.63c-0.17,0.04-0.31,0.06-0.52,0.17L97.74,156.73z"/>
					<path class="st0" d="M41.81,74.16c0.01,0,0.02,0.01,0.02,0.01S41.82,74.16,41.81,74.16z"/>
					<path class="st0" d="M42.16,83.42c0.54-0.99-2.05-1.59-3.28-2.46c-0.05-1.6,1.98,0.26,3.37,0.43
						c-0.22-1.05-2.01-2.74-1.61-3.28c0.4,0.16,0.59,0.12,1,0.5c-0.69-0.89-0.4-1.52-0.13-2.18c0.28-0.66,0.51-1.36-0.33-2.48
						c0.24,0.05,0.45,0.12,0.63,0.2c-1.21-0.51-2.36-1.15-3.14-1.65c0.24-0.5-0.88-1.73,0.67-1.04c-0.21,0.27,0.36,0.64,0.73,1.05
						l-0.34-0.87c2.34,0.81,0.33,1.11,1.87,2.03c-0.15-1.35-1.14-3.5-0.09-3.86c2.1,1.14-0.39,2.09,2,2.27l-1.46,0.61
						c3.71,1.12-0.62,0.52,3.26,1.85c1.47-1.01-0.03-2.19,1.44-3.21c-0.9-1.05-1.69-0.98-2.59-2.03c-0.56-3.35,5.99,1.87,4.39-1.37
						c-1.03-1.3-3.33-3.23-1.28-3.29l1.89,1.96c1.18-1.11-2.5-3.09-0.03-3.35c0.64,0.9-0.08,1.57,0.32,1.57
						c2.34,0.44-0.74-1.57-0.19-2.24l1.96,1.36c0.8-1.54,0.7-4.14,1.72-5.86c0.45,0.56,0.78,1.3,1.62,1.46
						c0.19-0.64,0.5-1.2,0.93-1.66c0.44-0.45,0.98-0.82,1.56-1.13c0.59-0.31,1.23-0.56,1.88-0.76c0.67-0.18,1.35-0.33,2.01-0.45
						l-0.75-2.11c0.17-0.12,0.9,0.43,1.01,0.88c1.17-0.03-0.84-1-1.06-1.9c0.29-0.46,1.28,0.42,1.45,1.1
						c-0.01-1.16,0.18-2.56,0.71-3.53c0.52-0.97,1.4-1.49,2.47-0.83l0.11,0.64c0.59,0.13,0.27-0.88,0.09-1.83
						c-0.2-0.91-0.23-1.78,0.52-1.04l-0.01,0.4c0.51,0.01,0.98-0.05,1.28-0.13c0.35-0.08,0.71-0.17,1.06-0.16
						c0.69,0.02,1.43,0.53,1.19,2.11c0.58-1.36,0.84-0.91,1.05-0.57c0.23,0.33,0.47,0.55,1.71-1.1c-0.12,1.16-0.45,1.81-0.68,2.42
						c-0.24,0.6-0.4,1.16-0.53,2.03c0.04,0.33,2.26-1.33,2.97-1.11l-1.74,1.28c0.73-0.27,1.5-0.5,2.27-0.69
						c-0.65,0.59-1.3,1.15-1.98,1.7c0.24,0.04,0.48,0.08,0.72,0.14c0.01-0.23,0.62-0.86,1.16-1.15c0.64,0.11,0.58,0.8,0.21,1.46
						c-0.38,0.68-1.06,1.33-1.56,1.57c0.83,0.35,1.67,0.8,2.51,1.33c-0.84,0.25-1.24-0.01-1.87-0.08c2.48,0.35-2.06,0.96,0.21,1.31
						c0.41-0.3,1.24-0.34,1.66-0.46c-1.05,0.97-0.65,2.23,0.16,3.14l-1.48,0.21c0.11,1.97,1.79,3.7,2.21,5.89
						c0.5-0.92,3.05-1.35,3.44-0.75l-2.17,0.76c1.47,0.1,0.69-0.86,2.56-0.39c-0.07,0.89-2.41,1.11-3.24,0.81l1,0.81
						c-0.65,0.2-1.05,0.05-1.92,0.17c1.48,0.11-1.86,2.13,0.65,2.23l-0.65,0.19c0.38,2.18,1.38,3,1.77,4.8
						c1.95-0.29,1.63,0.49,3.29,0.79c-0.39,1.45-1.7,3.17-1.31,4.79c1.13,1.02,1.7,0.11,2.93,0.47c-1.76,0.33-1.37,1.94-2.76,1.27
						c0.56,1.93,0.68,2.48,2.44,4.83c0.69-0.36,0.97-0.71,1.6-0.62c0.35,0.43-0.62,1.14-1.48,1.17l-0.2-0.1
						c3,2.55-4.43,7.19-0.46,9.08l-0.2-0.11l2.21,2.17c-0.18,1.14-1.41-0.51-2.42,0.43c3.27,2.25,0.04,4.16,2.3,6.07
						c-5.05,2.34,1.15,5.89-1.84,8.66l1.21-0.32c1.3,0.41-0.59,0.83-0.8,1.31c0.95-0.22,1-0.82,1.73-0.56
						c2.23,4.72,0.04,10.67,0.34,16.31c0.21,2.04,6.5-0.62,4.29,2.56l-2.41-0.03c1.89,1.55,2.52,3.48,3.07,5.46
						c0.62,2,1.31,4.08,3.24,5.49c-0.59,0-1.23,0.27-1.39-0.11c-0.58,0.75-0.25,1.53,0.38,2.03c0.65,0.5,1.59,0.71,2.2,0.41
						c0.16,0.66-1.03,0.7-1.47,1.39c-0.42,1.32,2.98,1,1.8,2.25c-0.19,0.21-0.61,0.05-0.81-0.04c1,0.12,1.35,2.59,2.67,1.04
						c0.08,0.95,0.69,1.51,1.32,2.01c0.61,0.51,1.16,0.98,1.17,1.88c1.14-0.34,1.36,0.38,1.73,0.97c0.35,0.59,0.74,1.06,1.92,0.08
						c-1.19,1.07-1.07,2.07-0.39,2.78c0.65,0.72,1.93,1.02,2.81,0.79c-0.44,0.26-0.4,0.61-0.38,1c0.03,0.38,0.03,0.8-0.56,1.19
						c1.19,0.81,2.6,1.01,3.25-0.51c0.03,1.12,0.46,1.7,1.02,1.98c0.58,0.26,1.29,0.22,1.93,0.18c1.3-0.07,2.33-0.27,2.23,2.31
						c4.62-0.28,8.22-1.13,11.41-2.03c0.03,1.59-0.92,1.69-1.84,1.79c-0.91,0.11-1.82,0.13-1.87,1.8c0.9-0.25,1.68-0.65,2.38-1.09
						c0.7-0.42,1.32-0.88,1.92-1.3c0.6-0.41,1.18-0.76,1.79-1.02c0.61-0.25,1.27-0.35,2.04-0.32c0.85,0.28-0.18,1.43-0.38,2.01
						c1.46-0.92,2.92-1.17,4.32-1.57c1.39-0.39,2.72-0.9,3.62-2.21c0.11,0.27-0.04,0.68-0.2,1.01c0.45-0.3,1.33-0.05,0.7-1.35
						l-0.32,0.56c-0.78-0.8-0.71-2.01-0.56-3.12c0.16-1.11,0.38-2.17,0.18-2.68c0.53,2.03,1.17,2.01,1.85,2.12
						c0.65,0.1,1.37,0.31,1.96,2.95c0.19-0.41,0.25-1.21-0.28-2.01c0.57,0.01,0.99,0.42,1.06,1.63c1.28-1.6-0.09-2.6,1.32-3.41
						c0.37,0.59,0.24,1,0.52,1.78c0.01-1.61-0.09-3.16,1.34-3.45c0.18,0.39,0.62,0.74,0.29,0.97c0.89-0.79,1.16-2.09,1.46-3.28
						c0.33-1.17,0.7-2.22,2.05-2.55c1.53,2.71,1.29,0.14,3.21,1.91c0.15-0.52,0.31-1.02,0.44-1.54l-1.29-0.5
						c0.87-0.84,0.18-2.85,1.45-3.04c0.08,0.45,0.17,0.91,0.24,1.37l1.06-1.99l-1.56,0.29c-0.28-1.75-2.59-2.06-1.09-2.7
						c0.03,0.4,0.69-0.82,2.27-0.35c0,0,0,0,0,0.01c-0.32-0.95-0.72-1.91,0.29-2.19c0.81,0.3,2.26,1.8,2.8,2.01
						c-1.46-1.7,1.04-2.6-0.6-4.43c0.35,0.48,1.51,1.21,1.79,1.29l-1.28-1.32c0.75-0.15,1.03-0.08,1.93,0.55
						c1.09-1.22-3.1-1.22-0.96-2.13c0.06,0.2,0.32,0.27,0.41,0.66c1.6-1.3,0.68-3.71,2.17-4.89c2.62,0.59-0.04,1.66,2.22,2.03
						c0.34-1.28,0.12-2.83-0.03-4.27c-0.15-1.45-0.25-2.79,0.41-3.85l-0.41,0.34c-1.72-0.71-1.15-0.98-0.33-1.31
						c0.82-0.33,1.94-0.73,1.23-1.54c0.19,0.35,1.9,0.9,1.52,0.72c0.99-1.49-0.06-3.58-0.82-6.17l0.89,0.46
						c1-0.82,0.88-2.46,1.41-3.45c-0.91-0.42-0.69-0.99-2.11-0.77c2.87-1.31,2.24-2.99,1.46-4.48c-0.8-1.52-1.74-2.87,0.49-4.34
						c0.03,0.34,0.84,0.8,0.85,0.53c-0.31-0.81-0.64-1.61-0.96-2.41c-1.61,0.27-0.97,0.37-2.21,0.91c-0.97-0.26-1.73-0.87-1.78-1.44
						c1.13,0.98,2.59-0.15,3.46-0.68c-0.49,0.11-1.05-0.01-1.55,0.06c2.79-1.44-3.25,0.03-1.46-1.76l0.85,0.01
						c-0.48-0.59-1.66-1.03-1.5-1.71c1.83-0.49,0.94,0.56,2.48,0.44c-0.22-0.96-3.73-1.43-2.01-2.5c0.57,0.32,0.67,0.89,1.22,1.23
						c2.07-1.21,1.48-1.26,1.73-2.01l-0.04,0.08c0.26-0.59,0.5-1.19,0.73-1.8l-0.52,0.52c-2.51-0.22-2.81-0.76-2.96-1.41
						c-0.14-0.64-0.07-1.4-1.82-1.82c3.3,0.87,1.77-0.12,3.86-0.46c0.48-0.54,0.98-1.33,1.6-1.28c-1.83-0.38,0.98-1.66-1.72-2.13
						c0.65-0.23-0.17-0.85,1.53-1.14c-0.82-0.88-1.07,0.57-1.92,0.71c-1.35-0.45-0.91-1.53-0.7-2.71c0.25-1.17,0.28-2.47-1.64-2.96
						c-2-1.35-4.25-0.69-6.03-1.67c0.35-0.51,0.95-0.7,1.47-0.75c0.52-0.05,0.96,0.03,0.96,0.03c0.42-1.32-0.08-1.94-1.25-2.32
						c0.61-0.15,0.94-0.57,1.45-1.22c-0.57-0.57-2.35,0.87-2.07-0.49c0.73-0.28,1.88-0.77,2.73-0.85c-1.06-0.46-2.61-0.51-3.67-0.87
						c0.79-0.91,1.81-0.63,2.63-0.78c-1.09-0.61-2.61-1.65-4.26-0.65l-0.08,0.93c-0.31-0.22,1.12-1.18,1.57-1.18
						c1.73-0.18,0.3,1.46-0.23,1.9l-0.74-0.25c-1.38,1.51-0.87,1.84,0.03,2.06c0.91,0.21,2.3,0.27,2.53,0.91
						c-0.92,0.35-1.83,0.72-2.74,1.1c0.89-0.08,1.8-0.14,2.73-0.17c-0.51,0.63-1.83,1.58-2.51,1.3c-0.8,1.43,1.28,0.15,0.23,1.57
						c-0.18,0.19-0.32,0.22-0.46,0.21l1.16,0.32c-0.62,0.14-1.77,1.05-1.63,0.43c-0.41,1.01,0.3,1.28,0.94,1.5
						c0.64,0.22,1.15,0.4,0.25,1.09l-0.21-0.04c0.84,0.72,1.36,0.57,2.03,0.29c0.67-0.28,1.48-0.72,2.94-0.4
						c-1.51,0.98-3.03,1.92-4.57,2.82l2.08-0.53c0,0.23-0.02,0.68-0.86,0.88c1.64,0.28,0.84-0.43,2.29-0.43
						c-0.75,0.8-0.33,1.41-0.11,1.99c0.23,0.58,0.22,1.12-1.39,1.67c1.66-0.06,0.96-1.29,2.33-0.5c-3.46,1.23,0.94,1.09-0.49,2.43
						c-1.91,0.13-1.12-0.93-2.56,0.34c3.25-0.15-0.31,1.89,0.43,2.49c2.51-0.42,1.35,1.48,2.36,2.66c-0.85,0.04-1.05,2.65-1.89,3.92
						l-0.43,0c2.59,0,2.2,1.31,2.78,2.2c-1.54,0.05-2.15-0.09-2.87-0.52l0.06,0.83c0.84,0.16,1.27,0.4,1.59,0.94l-1.93-0.14
						c0.15,1.08,2.33,2.22,1.02,3.66c1.79,0.14,5.02-1.15,6.18,0.53c-0.97,0.04-2.63,0.05-3.02-0.37c0.13,0.14,0.79,0.51,0.38,0.78
						l-1.62-0.68c-0.73,0.66,1.35,0.39,1.19,0.93c-1.38-0.06-1.01,0.36-2.1,0.24c-0.12-0.14,0.59-0.44,0.05-0.67
						c-0.26,0.6-1.13,1.28-2.18,1.45c0.79-0.01,1.86,0.1,2.02,0.55c0.02,1.13-1.69,0.27-2.44,0.86c0.94,0.34-0.11,0.95,1.94,1.17
						c-0.05,0.33-1.01,0.29-1.58,0.35c0.86,0.66-0.07,2.67,2.19,2.33l0.17-0.13c0.04,0.03,0.04,0.07,0.08,0.11l0,0l0,0
						c0.89,1.11,0.41,2.09-0.19,3c-0.64,0.91-1.4,1.74-1.22,2.77l-0.67-0.17c0.5,1.3-0.2,2.54,0.96,3.77
						c-0.11,0.33-1.45,0.37-2.18-0.03c0.23,0.97,0.9,1.34-0.59,2.11c-0.84-1.23-1.1-0.11-0.53-1.13c-0.93,0.83-2.05,0.59-0.74,2.4
						c-1.47-1.04-2.36-0.16-2.09,0.51l1.46-0.16c-0.01,0.63-0.35,1.04-0.71,1.43l-1.98-1.25c-1.74,0.32-1.06,1.65-0.67,2.92
						c0.42,1.25,0.55,2.41-1.87,1.81c1.07,1.37,1.59-0.36,2.93,1.07c-0.84,0.73-4.17-0.29-4.34-0.08c-1.79,0.27,2.04,3.01,0.43,3.62
						c0.75,0.38,2.63,1.6,2.5,3c-0.96,0.65-3.48-1.3-3.58-2.21c0.1-0.23,0.38-0.14,0.59,0.05c-0.02-0.44-0.03-0.98-0.97-1.26
						l0.56,0.63c-0.97-0.17-1.76,0.88-2.57-0.27c0.1,1.04,0.8,1.15,1.49,1.03c-1.72,0.1-1.35,1.4-2.83,1.7
						c0.46,0.19,1.27,0.76,1.12,0.9c-2.08,0.54,0.45,1.72-0.31,2.91c-1.4-0.49-1.75-2.48-2.07-0.84c-1.14-0.18-1.49-1.63-1.7-2.33
						c0.09,0.97-0.5,1.09-1.15,0.94c-0.66-0.14-1.38-0.51-1.71-0.48c0.02-0.28,0.05-0.56,0.06-0.85c-0.02,0.52-0.26,0.64-0.48,0.79
						l1.19,1.2c-0.44-0.06-0.67,0.09-1.05-0.49c0.31,1.1,1.75,2.15,1.95,3.81c-0.84-0.46-0.79,1.54-2.02-0.3
						c1.59-0.08-1.23-1.85-0.44-2.73c-0.04,0.33-0.28,0.46-0.69,0.37c-0.16-0.19-0.19-0.42-0.18-0.57
						c-2.01-1.15,0.74,2.46-0.53,3.04c-0.4-1.19-1.3-1.99-1.37-1.67c0.47-0.2,1.13,1.76,1.04,2.86c-1.21-0.54-0.63,1.05-1.13,1.13
						c0.23,0.08,0.45,0.14,0.68,0.21c0.3,1.23-0.22,1.26-0.74,1.86c-0.38-0.89,0.35-0.84-0.02-1.15c0.03,1.14-0.58,0.79-1.2,0.28
						c-0.63-0.5-1.26-1.06-1.54-0.24c-0.64-0.71-0.62-2.25-1.1-2.72c-0.29,0.92-0.66,0.53-0.99,0.13c-0.35-0.4-0.66-0.84-1.04-0.13
						c0.49,1.62,0.55,1.2-0.02,2.92c0.56-0.46,1.08-0.93,1.57-1.44c-0.21,0.85-0.46,1.76-0.75,2.59c0.59-0.05,1.02-1.25,1.4-1.02
						c-0.29,1.44-0.35,1.03,0.23,2.33c-0.67-1.16-0.97-0.7-1.34-0.19c-0.35,0.51-0.77,1.16-1.33,0.35l-0.35-4.12
						c-0.66-0.88-1.09-0.31-1.66,0.31c-0.28,0.33-0.59,0.66-0.93,0.82c-0.34,0.17-0.71,0.22-1.05-0.11
						c0.13,0.26,0.27,0.53,0.42,0.78c-0.39,1.6-1.04,0.11-1.66,0.66c0.3-1.35,0.09-1.91,0.1-2.79c-0.24,1.03-0.91-0.33-1.9,2.25
						c-0.05-0.63-0.06-1.31-0.04-1.95c-0.4-0.53-1.06,0.23-1.85,0.97c-0.39,0.38-0.8,0.76-1.18,0.97c-0.37,0.2-0.72,0.23-0.97-0.05
						c1.11-1.09,1.14-2.21,2.35-2.74c-0.32-0.21-0.48-0.59-0.99,0.22c0.12-0.42-0.35-0.17-0.83-0.01c-0.48,0.16-0.98,0.25-0.74-0.39
						c-0.51,0.37-1.45,1.47-1.79,1.04c0.13-0.25,0.44-0.52,0.44-0.52c-0.43,0.53-1.26,0.18-1.88,1.64c0.82-2.15,0.09-2.74-0.73-3.41
						c-0.79-0.66-1.64-1.36-0.51-2.98c-0.99-0.55-2.06-1.44-2.66-2.25c0.39-0.15,0.6-0.34,0.57-0.11c0.47-1.81-3.91,1.2-3.41-0.98
						c1.62-1.75,1.47,0.22,1.99-0.62c1.97-1.14,1.63-1.47,1.03-1.8c-0.59-0.35-1.46-0.72-0.45-1.74l0.34,0.13
						c0.55-0.68-0.03-0.94-0.78-1.23c-0.74-0.3-1.67-0.62-1.75-1.32c0,0,0.4-0.08,0.65-0.23c-2.51-0.04-3.8-1.59-4.83-2.71
						c1.83-0.13,1.09,0.31,2.73-0.49c-0.43-0.5-2.71,1.06-3.57,0.02c0.81-0.68,1.35-1.76,3.18-2.41c0.14,0.36,0.29,0.7,0.44,1.05
						c2.2-1.26-0.52-1.37-0.25-2.08l1.07-0.22c-0.79-1.56-3.45-0.89-3.76-2.78l-0.75,0.39c-2.9-0.38,1.29-1.22-0.92-1.77l2.62-0.93
						c-0.79-0.51-3.17-1.76-3.9-2.9c2.12,0.3,3.49,1.48,4.86,2.07c-0.12-0.66-0.72-2.17-2.1-2.25c0.31,0.22,1.04,0.42,0.69,0.76
						c-2.31-0.36-3.55-1.27-3.77-2.63c2.65-0.38,2.82-1.31,2.81-2.36c0.01-1.06-0.14-2.25,1.83-3.07c-2.36-2.05,0.13-4.84-0.57-7.57
						c-4.01,1.54-0.22-0.81-4.44-0.09c-0.36-0.63-0.32-0.89-0.05-0.98l2.29-2.31c1.18-0.62,1.01,0.51,1.96,0.33
						c0.15-1.47,1.72-0.82,2.74-1.9c-1.5,0.38-2.24-0.25-1.75-1.14l-1.83,1.39c-2.5-1.77,3.37-2.17,0.89-3.95l1.41,0.49
						c-0.91-0.94-0.41-3.9-3.95-4.55c0.47-0.24,1.61-0.62,1.97-0.19c0.22-2.6-4.27-5.25-2.42-7.5l1.06,0.07
						c-0.36-0.45-2.06-0.6-1.09-1.33c0.43-0.02,1.06,0.06,1.09-0.17c-0.39-0.21-1.98-1.05-1.45-1.76l1.24,0.39
						c1.04-2.71-3.38-3.51-4.37-5.49c3.06-0.44,3.72-2.61,4.04-3.7l0.44-0.04c-0.05-1.53-0.89-2.7-1.97-3.8
						c-1.07-1.09-2.29-2.1-3.18-3.34c1.45-1.19,1.46-2.74,1.26-4.37c-0.2-1.63-0.72-3.35-0.18-5c-0.43,0.58-2.33,0.58-2.76,0.18
						c0.44-0.82-2.56-1.17,0.17-1.89l0.02,0.25c2.5-1.3,1.36-2.51,1.02-3.67l-3.55,1.06c2.03-2.31,0.73-4.23-0.71-5.75
						c-1.46-1.57-2.99-2.67-1.71-4.95c-1.29-0.18-2.05-1.08-3.35-1.07L83.47,39c-0.76-1.15-1.43-1.97-2.29-2.73
						c-0.86-0.75-1.93-1.44-3.65-2.09c0.44-0.3,0.89-0.6,1.35-0.88c-0.93-0.59-2.21,0.39-3.34,1.48c-1.14,1.1-2.17,2.28-2.94,2.11
						c0.14-0.99,0.25-1.99,0.33-2.99c-1.72-0.46-3.45-1.35-5.37-1.62c-1.87-0.29-3.96,0.09-5.24,1.89
						c-0.08-0.43-0.23-1.28,0.32-1.55c-0.85,0.16-2.56,0.23-3.73,0.78c-1.18,0.54-1.7,1.47-0.51,3.13
						c-0.64-1.16-1.38-0.83-1.97,0.01c-0.59,0.85-0.96,2.18-1.15,3.06l-0.97-1.7c0.5,2.73,0.93,3.26,0.19,4.75
						c-0.43,0.03-1.24-1-0.55-0.92c-1.57-0.01,0.48,2-1.23,2.13l-0.45-1.28c-0.97,0.68-0.45,1.12,0.06,2.63
						c0,1.06-1.93,1.12-3.29-0.03c0.62,0.88,1.17,2.35,0.34,2.47c-0.53-0.41-0.65-0.88-0.7-1.11c-2.32,0.47-0.43,3.62-2.71,3.27
						c-0.49-0.42-0.78-0.58-1-0.63c1.09-1.12,2.08-1.91,2.09-1.73c-1.27-1.27-2.42-0.57-3.46-3.04c0.11,0.85,0.38,2.1,0.47,3.17
						c0.09,1.09-0.02,1.99-0.75,2.16c-0.17-0.07-0.34-0.14-0.57-0.3l-0.06-0.23c-0.33,0.09-0.38,0.4-0.31,0.78
						c-0.49,0.1-0.82,0.14-1.1,0.41c-1.23-0.88-1.57,0.6-2.03,1.05c1.54,1.23,0.77,1.66,2.5,2.11c-0.17-0.02-0.1-0.24,0.1-0.62
						c0.02-0.11,0.07-0.21,0.02-0.34c0.03,0.04,0.07,0.09,0.1,0.15c0.22-0.35,0.53-0.8,0.92-1.27c0.41,1.03,0.72,1.96-0.55,1.78
						c0.76,1.07,1.53,2.17,1.87,2.71c-2.63-1.13-4.86-0.79-6.32-1.65c-0.31,2.23-2.25,4.1,0.11,7.23c0.08,0.71-1.22-0.11-1.81-0.28
						c-0.12-0.47,0.14-0.74-0.2-1.19c0.16,1.44-1.57,2.85,0.47,4.5c-1.7,0.49-1.57-1.95-2.23-0.15l-0.53-0.64
						c-2.74,0.45-2.2,2.64-1.65,4.73c0.26,1.05,0.49,2.07,0.24,2.88c-0.24,0.82-0.92,1.45-2.57,1.73c0.42-0.1,0.62-0.15,1.03,0
						c-2.14,1.47-2.66,3.91-3.32,6.2c-0.29,1.16-0.62,2.3-1.2,3.32c-0.58,1.02-1.34,1.96-2.62,2.71c-1.16,0.97,0.33,1.66,1.27,2.82
						l-2.09-0.42l1.89,2.06c0.57,1.17-0.96,1.53-2.24,2.09c-1.29,0.54-2.43,1.26-1.13,2.87l1.46,0.07
						c-0.52,0.76,0.15,2.85-1.41,2.32c0.23,0.15,1.38,0.62,0.57,0.78l-1.08-0.23l1.36,2.48c-1.09,1.45-4.24-1.18-4.92,1.22
						c0.24,1.01,2.68,3.13,3.48,2.91c0.12-0.35,0.85-0.78,1.95-0.61l0.42,0.88c3.18,0.71,6.38,1.77,8.95,0.42l-1.72-1.6l1.63-0.09
						l-0.1,1.04c1.57-0.3,0.35-0.91-0.46-1.51c0.84,0.07,1.45,0.02,1.8-0.15c-0.93-0.61-1.84-1.23-2.76-1.86
						c1.28,0.14,2.34,1.09,3.22,0.45c-1.28-0.88-2.91-0.1-3.62-1.25c1.58-0.26,2.71,0.21,1.65-0.78c0.84,0.11,1.32,0.38,1.62,0.73
						c-0.84-0.84-0.04-1.7-1.61-2.45c1.94-0.12,0.12-2.18,3.07-1.26c-0.65-0.38-2.05-1.75-1.97-2.34c3.2,2.1,0.88-1.99,4.56-0.48
						c-1.45-0.88-1.6-1.67-1.51-2.45c0.1-0.78,0.4-1.57-0.22-2.54c0.22,0.17,0.66,0.5,0.46,0.55c0.53-0.62,1.54-0.47,2.29-0.69
						c-2.53-1.11-2.62-2.45-3.92-3.73c2.81,0.15,2.74,1.79,5.2,2.5c-2.07-0.81-1.4-2.36-3.23-2.81c1.78-0.01,0.97-0.26,3.19,0.33
						c-3.08-1.53-0.25-0.84-1.9-2.27c1.98-0.23,3.02,1.13,2.57-0.35C41.5,81.99,42.16,83.42,42.16,83.42z M52.46,57.65
						c0.01,0.01,0.02,0.02,0.03,0.03c-0.13,0.21-0.24,0.39-0.31,0.5C52.24,58.07,52.32,57.92,52.46,57.65z M54.04,55.9
						c-0.26,0.15-0.52,0.39-0.76,0.69c-0.55-0.4-1-0.95-0.81-1.1C52.7,55.88,53.37,55.74,54.04,55.9z M40.36,50.66
						c0.06-0.51,0.45-0.36,0.79-0.14c-0.11,0.17-0.21,0.4-0.31,0.72c0.04,0.05,0.11,0.14,0.15,0.2
						C40.74,51.16,40.5,50.9,40.36,50.66z"/>
					<path class="st0" d="M41.83,52.93c-0.01,0.07,0.04,0.15,0,0.22c0.19,0.05,0.35,0.08,0.5,0.1c-0.13-0.18-0.26-0.35-0.37-0.51
						C41.91,52.8,41.87,52.87,41.83,52.93z"/>
					<path class="st0" d="M155.83,117.88l-0.05,0.04c0.08-0.03,0.17-0.06,0.29-0.07C155.97,117.88,155.91,117.87,155.83,117.88z"/>
					<polygon class="st0" points="71.42,52.39 71.82,52.1 71.4,52.26 					"/>
					<path class="st0" d="M163.01,104.35c0.17-0.04,0.35-0.1,0.49-0.22C163.38,104.15,163.2,104.24,163.01,104.35z"/>
					<path class="st0" d="M162.8,98.1l0.56-0.98C163.03,97.56,162.87,97.86,162.8,98.1z"/>
					<path class="st0" d="M162.9,93.12c-0.35,0.01-0.61,0.05-0.85,0.08c0,0,0,0.01-0.01,0.01L162.9,93.12z"/>
					<path class="st0" d="M134.88,162.94c-0.07,0.04-0.12,0.09-0.17,0.17C134.37,163.64,134.65,163.39,134.88,162.94z"/>
					<path class="st0" d="M151.18,144.54c0.13,0.41,0.26,0.81,0.28,1.15C151.83,145.46,152.07,145.23,151.18,144.54z"/>
					<path class="st0" d="M103.25,161.94c0.01-0.01,0.01-0.01,0.02-0.03c-0.07-0.04-0.12-0.08-0.18-0.13L103.25,161.94z"/>
					<path class="st0" d="M150.76,146.53c0.56-0.08,0.71-0.41,0.7-0.83C151.14,145.88,150.74,146.07,150.76,146.53z"/>
					<path class="st0" d="M154.6,72.48c-0.03-0.09-0.06-0.17-0.1-0.26c-0.1,0.09-0.19,0.14-0.26,0.18L154.6,72.48z"/>
					<path class="st0" d="M154.23,72.4l-0.37-0.07C153.95,72.43,154.04,72.51,154.23,72.4z"/>
					<path class="st0" d="M153.09,72.19l0.78,0.14C153.73,72.17,153.6,71.93,153.09,72.19z"/>
					<path class="st0" d="M157.75,78.86l0.66-0.27C158.26,78.62,158.04,78.7,157.75,78.86z"/>
					<path class="st0" d="M158.89,80.62c-0.06-0.51,0.8-1.82,0.06-2.24l-0.53,0.21C159.52,78.39,157.63,80.74,158.89,80.62z"/>
					<path class="st0" d="M153.48,91.08c0.04-0.51,0.1-1.04,0.12-1.55c-0.64,0.48-1.51,1.08-1.89,0.54
						C150.08,92.43,153.23,89.2,153.48,91.08z"/>
					<path class="st0" d="M153.48,95.66c-0.5-0.68-1.08,0.24-1.51,0.28C152.75,96.26,152.94,96.35,153.48,95.66z"/>
					<path class="st0" d="M152.01,127.28l-1.67-0.65C150.4,127.24,151,126.86,152.01,127.28z"/>
					<path class="st0" d="M158,136.9l1.31-0.13l-1.35-1C157.99,136.16,157.99,136.53,158,136.9z"/>
					<polygon class="st0" points="145.01,134.12 144.91,133.79 145.01,134.89 					"/>
					<path class="st0" d="M110.18,144.72l-1.63,1.49C109.09,146.24,111.03,144.7,110.18,144.72z"/>
					<path class="st0" d="M99.62,125.28c0.99-0.52,1.55-1.33,0.4-1.48C99.99,124.36,99.26,125.09,99.62,125.28z"/>
					<polygon class="st0" points="89.88,49.76 90.79,50.07 89.79,49.21 					"/>
				</g>
			</g>
		</g>
	</g>
</g>
</svg>
