<?xml version="1.0" encoding="utf-8"?>
<!-- Generator: Adobe Illustrator 23.0.1, SVG Export Plug-In . SVG Version: 6.00 Build 0)  -->
<svg version="1.1" id="Layer_1" xmlns="http://www.w3.org/2000/svg" xmlns:xlink="http://www.w3.org/1999/xlink" x="0px" y="0px"
	 viewBox="0 0 189 189" style="enable-background:new 0 0 189 189;" xml:space="preserve">
<style type="text/css">
	.st0{fill:#FFFFFF;stroke:#000000;stroke-miterlimit:10;}
	.st1{fill:#202020;}
</style>
<rect x="7" y="13.3" class="st0" width="174" height="164"/>
<g>
	<g>
		<g>
			<g>
				<g>
					<path class="st1" d="M148.9,68.8c-0.5,0.3-1.3,1.4-0.8,1.6l1.8-1.5L148.9,68.8z"/>
					<path class="st1" d="M148.5,74.3c1.2-0.4,3.1-1.1,4.5-2.9c-2.1,1-1.5,0.3-3.9,1.7c-0.5-0.2-0.1-1.2,0.6-1.7
						c-0.5,0.3-0.3-0.9-1.4-0.1c-0.7,1.8-0.2,2.3,1.5,1.9C149.4,73.8,148.9,74.1,148.5,74.3z"/>
					<path class="st1" d="M155.5,118.2l0.3-0.2C155.6,118,155.5,118.1,155.5,118.2z"/>
					<path class="st1" d="M143.8,141.8c0.1-0.2,0-0.4-0.2-0.5C143.6,141.5,143.6,141.7,143.8,141.8z"/>
					<path class="st1" d="M139,143.2c0.1,0,0.2,0,0.3-0.1C139,143,138.9,143,139,143.2z"/>
					<path class="st1" d="M155.5,118.2l-0.8,0.6C155.4,119,155.3,118.5,155.5,118.2z"/>
					<path class="st1" d="M157.2,76.5c-0.2-0.1-0.5-0.1-0.8-0.1c0.2,0.1,0.3,0.2,0.4,0.3C157,76.6,157.1,76.6,157.2,76.5z"/>
					<path class="st1" d="M154.2,106.2l0-0.2c-0.3-0.1-0.6-0.1-0.9-0.1L154.2,106.2z"/>
					<path class="st1" d="M152.8,97.2c-0.1,0.2,1.9-0.1,2.8-0.1c-0.8,0-1.2-0.1-1.4-0.2C153.8,96.9,153.3,97,152.8,97.2z"/>
					<path class="st1" d="M151.5,82.5l-0.4-0.1C151.2,82.4,151.4,82.5,151.5,82.5z"/>
					<path class="st1" d="M153.7,112.6c-0.3,0-0.6,0-0.7,0C153.3,112.7,153.5,112.7,153.7,112.6z"/>
					<path class="st1" d="M35.1,96.4c-0.1-0.1-0.2-0.1-0.3-0.1C35,96.4,35.1,96.5,35.1,96.4z"/>
					<path class="st1" d="M23.2,104.8l-0.1-0.2c-0.4-0.1-0.7-0.2-1.1-0.2L23.2,104.8z"/>
					<path class="st1" d="M131.8,145.4C131.8,145.5,131.8,145.5,131.8,145.4C131.8,145.2,131.8,145.3,131.8,145.4z"/>
					<path class="st1" d="M98.9,103.6c-1.6,1.1-2.4-1.2-4.2,0.4C95.4,103.8,97.9,104.9,98.9,103.6z"/>
					<path class="st1" d="M157.2,76.9c0.1,0.1,0.2,0.2,0.3,0.4C157.4,77.1,157.3,77,157.2,76.9z"/>
					<path class="st1" d="M94.7,104L94.7,104l-0.2,0.2C94.6,104.1,94.6,104.1,94.7,104z"/>
					<path class="st1" d="M118.5,149.3c-0.1,0.3-0.1,0.6-0.1,0.9C118.5,149.9,118.5,149.7,118.5,149.3z"/>
					<path class="st1" d="M129.8,150.8l-0.4-0.1C129.6,150.8,129.7,150.8,129.8,150.8z"/>
					<path class="st1" d="M112.7,149.5c0-0.2,0.1-0.4-0.2-0.4c-0.1,0.1-0.1,0.2-0.1,0.2C112.5,149.2,112.7,149.2,112.7,149.5z"/>
					<path class="st1" d="M108.1,144.8c-0.1,0.1-0.2,0.2-0.2,0.3c0.1,0,0.2,0.1,0.2,0.1L108.1,144.8z"/>
					<path class="st1" d="M43.5,74.8c-0.6-0.1-1.1-0.4-1.7-0.6C43.1,74.8,43,76,43.5,74.8z"/>
					<path class="st1" d="M156.3,77.1c0.4-0.2,0.7-0.3,0.9-0.2c-0.1-0.1-0.2-0.2-0.3-0.2C156.6,76.8,156.4,77,156.3,77.1z"/>
					<path class="st1" d="M103.1,161.8c-0.4-0.5-0.9-0.9-1.3-1.4C102.1,160.9,102.6,161.4,103.1,161.8z"/>
					<path class="st1" d="M73.1,53.3l-0.3-0.1C72.8,53.3,72.9,53.4,73.1,53.3z"/>
					<path class="st1" d="M97.7,156.7c0.3-0.7,0.4-1.2,0.4-1.6c-0.2,0-0.3,0.1-0.5,0.2L97.7,156.7z"/>
					<path class="st1" d="M41.8,74.2C41.8,74.2,41.8,74.2,41.8,74.2C41.8,74.2,41.8,74.2,41.8,74.2z"/>
					<path class="st1" d="M42.2,83.4c0.5-1-2-1.6-3.3-2.5c0-1.6,2,0.3,3.4,0.4c-0.2-1.1-2-2.7-1.6-3.3c0.4,0.2,0.6,0.1,1,0.5
						c-0.7-0.9-0.4-1.5-0.1-2.2c0.3-0.7,0.5-1.4-0.3-2.5c0.2,0.1,0.5,0.1,0.6,0.2c-1.2-0.5-2.4-1.2-3.1-1.7c0.2-0.5-0.9-1.7,0.7-1
						c-0.2,0.3,0.4,0.6,0.7,1.1l-0.3-0.9c2.3,0.8,0.3,1.1,1.9,2c-0.2-1.3-1.1-3.5-0.1-3.9c2.1,1.1-0.4,2.1,2,2.3L42,72.7
						c3.7,1.1-0.6,0.5,3.3,1.8c1.5-1,0-2.2,1.4-3.2c-0.9-1.1-1.7-1-2.6-2c-0.6-3.3,6,1.9,4.4-1.4c-1-1.3-3.3-3.2-1.3-3.3l1.9,2
						c1.2-1.1-2.5-3.1,0-3.3c0.6,0.9-0.1,1.6,0.3,1.6c2.3,0.4-0.7-1.6-0.2-2.2l2,1.4c0.8-1.5,0.7-4.1,1.7-5.9
						c0.5,0.6,0.8,1.3,1.6,1.5c0.2-0.6,0.5-1.2,0.9-1.7c0.4-0.5,1-0.8,1.6-1.1c0.6-0.3,1.2-0.6,1.9-0.8c0.7-0.2,1.3-0.3,2-0.5
						l-0.8-2.1c0.2-0.1,0.9,0.4,1,0.9c1.2,0-0.8-1-1.1-1.9c0.3-0.5,1.3,0.4,1.5,1.1c0-1.2,0.2-2.6,0.7-3.5c0.5-1,1.4-1.5,2.5-0.8
						l0.1,0.6c0.6,0.1,0.3-0.9,0.1-1.8c-0.2-0.9-0.2-1.8,0.5-1l0,0.4c0.5,0,1,0,1.3-0.1c0.3-0.1,0.7-0.2,1.1-0.2
						c0.7,0,1.4,0.5,1.2,2.1c0.6-1.4,0.8-0.9,1.1-0.6c0.2,0.3,0.5,0.5,1.7-1.1c-0.1,1.2-0.4,1.8-0.7,2.4c-0.2,0.6-0.4,1.2-0.5,2
						c0,0.3,2.3-1.3,3-1.1l-1.7,1.3c0.7-0.3,1.5-0.5,2.3-0.7c-0.7,0.6-1.3,1.2-2,1.7c0.2,0,0.5,0.1,0.7,0.1c0-0.2,0.6-0.9,1.2-1.2
						c0.6,0.1,0.6,0.8,0.2,1.5c-0.4,0.7-1.1,1.3-1.6,1.6c0.8,0.3,1.7,0.8,2.5,1.3c-0.8,0.3-1.2,0-1.9-0.1c2.5,0.3-2.1,1,0.2,1.3
						c0.4-0.3,1.2-0.3,1.7-0.5c-1.1,1-0.7,2.2,0.2,3.1l-1.5,0.2c0.1,2,1.8,3.7,2.2,5.9c0.5-0.9,3.1-1.3,3.4-0.8l-2.2,0.8
						c1.5,0.1,0.7-0.9,2.6-0.4c-0.1,0.9-2.4,1.1-3.2,0.8l1,0.8c-0.7,0.2-1.1,0.1-1.9,0.2c1.5,0.1-1.9,2.1,0.7,2.2l-0.7,0.2
						c0.4,2.2,1.4,3,1.8,4.8c1.9-0.3,1.6,0.5,3.3,0.8c-0.4,1.4-1.7,3.2-1.3,4.8c1.1,1,1.7,0.1,2.9,0.5c-1.8,0.3-1.4,1.9-2.8,1.3
						c0.6,1.9,0.7,2.5,2.4,4.8c0.7-0.4,1-0.7,1.6-0.6c0.3,0.4-0.6,1.1-1.5,1.2L82,87.7c3,2.6-4.4,7.2-0.5,9.1l-0.2-0.1l2.2,2.2
						c-0.2,1.1-1.4-0.5-2.4,0.4c3.3,2.3,0,4.2,2.3,6.1c-5.1,2.3,1.2,5.9-1.8,8.7l1.2-0.3c1.3,0.4-0.6,0.8-0.8,1.3
						c0.9-0.2,1-0.8,1.7-0.6c2.2,4.7,0,10.7,0.3,16.3c0.2,2,6.5-0.6,4.3,2.6l-2.4,0c1.9,1.6,2.5,3.5,3.1,5.5c0.6,2,1.3,4.1,3.2,5.5
						c-0.6,0-1.2,0.3-1.4-0.1c-0.6,0.8-0.3,1.5,0.4,2c0.7,0.5,1.6,0.7,2.2,0.4c0.2,0.7-1,0.7-1.5,1.4c-0.4,1.3,3,1,1.8,2.3
						c-0.2,0.2-0.6,0.1-0.8,0c1,0.1,1.3,2.6,2.7,1c0.1,0.9,0.7,1.5,1.3,2c0.6,0.5,1.2,1,1.2,1.9c1.1-0.3,1.4,0.4,1.7,1
						c0.3,0.6,0.7,1.1,1.9,0.1c-1.2,1.1-1.1,2.1-0.4,2.8c0.7,0.7,1.9,1,2.8,0.8c-0.4,0.3-0.4,0.6-0.4,1c0,0.4,0,0.8-0.6,1.2
						c1.2,0.8,2.6,1,3.3-0.5c0,1.1,0.5,1.7,1,2c0.6,0.3,1.3,0.2,1.9,0.2c1.3-0.1,2.3-0.3,2.2,2.3c4.6-0.3,8.2-1.1,11.4-2
						c0,1.6-0.9,1.7-1.8,1.8c-0.9,0.1-1.8,0.1-1.9,1.8c0.9-0.3,1.7-0.6,2.4-1.1c0.7-0.4,1.3-0.9,1.9-1.3c0.6-0.4,1.2-0.8,1.8-1
						c0.6-0.3,1.3-0.4,2-0.3c0.9,0.3-0.2,1.4-0.4,2c1.5-0.9,2.9-1.2,4.3-1.6c1.4-0.4,2.7-0.9,3.6-2.2c0.1,0.3,0,0.7-0.2,1
						c0.4-0.3,1.3-0.1,0.7-1.4l-0.3,0.6c-0.8-0.8-0.7-2-0.6-3.1c0.2-1.1,0.4-2.2,0.2-2.7c0.5,2,1.2,2,1.9,2.1c0.6,0.1,1.4,0.3,2,2.9
						c0.2-0.4,0.3-1.2-0.3-2c0.6,0,1,0.4,1.1,1.6c1.3-1.6-0.1-2.6,1.3-3.4c0.4,0.6,0.2,1,0.5,1.8c0-1.6-0.1-3.2,1.3-3.4
						c0.2,0.4,0.6,0.7,0.3,1c0.9-0.8,1.2-2.1,1.5-3.3c0.3-1.2,0.7-2.2,2.1-2.6c1.5,2.7,1.3,0.1,3.2,1.9c0.1-0.5,0.3-1,0.4-1.5
						l-1.3-0.5c0.9-0.8,0.2-2.9,1.4-3c0.1,0.4,0.2,0.9,0.2,1.4l1.1-2l-1.6,0.3c-0.3-1.8-2.6-2.1-1.1-2.7c0,0.4,0.7-0.8,2.3-0.4
						c0,0,0,0,0,0c-0.3-0.9-0.7-1.9,0.3-2.2c0.8,0.3,2.3,1.8,2.8,2c-1.5-1.7,1-2.6-0.6-4.4c0.4,0.5,1.5,1.2,1.8,1.3l-1.3-1.3
						c0.8-0.1,1-0.1,1.9,0.6c1.1-1.2-3.1-1.2-1-2.1c0.1,0.2,0.3,0.3,0.4,0.7c1.6-1.3,0.7-3.7,2.2-4.9c2.6,0.6,0,1.7,2.2,2
						c0.3-1.3,0.1-2.8,0-4.3c-0.1-1.4-0.3-2.8,0.4-3.8l-0.4,0.3c-1.7-0.7-1.1-1-0.3-1.3c0.8-0.3,1.9-0.7,1.2-1.5
						c0.2,0.3,1.9,0.9,1.5,0.7c1-1.5-0.1-3.6-0.8-6.2l0.9,0.5c1-0.8,0.9-2.5,1.4-3.4c-0.9-0.4-0.7-1-2.1-0.8c2.9-1.3,2.2-3,1.5-4.5
						c-0.8-1.5-1.7-2.9,0.5-4.3c0,0.3,0.8,0.8,0.9,0.5c-0.3-0.8-0.6-1.6-1-2.4c-1.6,0.3-1,0.4-2.2,0.9c-1-0.3-1.7-0.9-1.8-1.4
						c1.1,1,2.6-0.2,3.5-0.7c-0.5,0.1-1.1,0-1.6,0.1c2.8-1.4-3.3,0-1.5-1.8l0.9,0c-0.5-0.6-1.7-1-1.5-1.7c1.8-0.5,0.9,0.6,2.5,0.4
						c-0.2-1-3.7-1.4-2-2.5c0.6,0.3,0.7,0.9,1.2,1.2c2.1-1.2,1.5-1.3,1.7-2l0,0.1c0.3-0.6,0.5-1.2,0.7-1.8l-0.5,0.5
						c-2.5-0.2-2.8-0.8-3-1.4c-0.1-0.6-0.1-1.4-1.8-1.8c3.3,0.9,1.8-0.1,3.9-0.5c0.5-0.5,1-1.3,1.6-1.3c-1.8-0.4,1-1.7-1.7-2.1
						c0.6-0.2-0.2-0.8,1.5-1.1c-0.8-0.9-1.1,0.6-1.9,0.7c-1.4-0.4-0.9-1.5-0.7-2.7c0.3-1.2,0.3-2.5-1.6-3c-2-1.3-4.3-0.7-6-1.7
						c0.4-0.5,0.9-0.7,1.5-0.8s1,0,1,0c0.4-1.3-0.1-1.9-1.3-2.3c0.6-0.2,0.9-0.6,1.4-1.2c-0.6-0.6-2.4,0.9-2.1-0.5
						c0.7-0.3,1.9-0.8,2.7-0.8c-1.1-0.5-2.6-0.5-3.7-0.9c0.8-0.9,1.8-0.6,2.6-0.8c-1.1-0.6-2.6-1.7-4.3-0.7l-0.1,0.9
						c-0.3-0.2,1.1-1.2,1.6-1.2c1.7-0.2,0.3,1.5-0.2,1.9l-0.7-0.3c-1.4,1.5-0.9,1.8,0,2.1c0.9,0.2,2.3,0.3,2.5,0.9
						c-0.9,0.3-1.8,0.7-2.7,1.1c0.9-0.1,1.8-0.1,2.7-0.2c-0.5,0.6-1.8,1.6-2.5,1.3c-0.8,1.4,1.3,0.2,0.2,1.6
						c-0.2,0.2-0.3,0.2-0.5,0.2l1.2,0.3c-0.6,0.1-1.8,1.1-1.6,0.4c-0.4,1,0.3,1.3,0.9,1.5s1.1,0.4,0.3,1.1l-0.2,0
						c0.8,0.7,1.4,0.6,2,0.3s1.5-0.7,2.9-0.4c-1.5,1-3,1.9-4.6,2.8l2.1-0.5c0,0.2,0,0.7-0.9,0.9c1.6,0.3,0.8-0.4,2.3-0.4
						c-0.8,0.8-0.3,1.4-0.1,2c0.2,0.6,0.2,1.1-1.4,1.7c1.7-0.1,1-1.3,2.3-0.5c-3.5,1.2,0.9,1.1-0.5,2.4c-1.9,0.1-1.1-0.9-2.6,0.3
						c3.3-0.2-0.3,1.9,0.4,2.5c2.5-0.4,1.4,1.5,2.4,2.7c-0.9,0-1.1,2.7-1.9,3.9h-0.4c2.6,0,2.2,1.3,2.8,2.2
						c-1.5,0.1-2.1-0.1-2.9-0.5l0.1,0.8c0.8,0.2,1.3,0.4,1.6,0.9l-1.9-0.1c0.1,1.1,2.3,2.2,1,3.7c1.8,0.1,5-1.2,6.2,0.5
						c-1,0-2.6,0.1-3-0.4c0.1,0.1,0.8,0.5,0.4,0.8l-1.6-0.7c-0.7,0.7,1.4,0.4,1.2,0.9c-1.4-0.1-1,0.4-2.1,0.2
						c-0.1-0.1,0.6-0.4,0.1-0.7c-0.3,0.6-1.1,1.3-2.2,1.4c0.8,0,1.9,0.1,2,0.6c0,1.1-1.7,0.3-2.4,0.9c0.9,0.3-0.1,0.9,1.9,1.2
						c-0.1,0.3-1,0.3-1.6,0.3c0.9,0.7-0.1,2.7,2.2,2.3l0.2-0.1c0,0,0,0.1,0.1,0.1l0,0l0,0c0.9,1.1,0.4,2.1-0.2,3
						c-0.6,0.9-1.4,1.7-1.2,2.8l-0.7-0.2c0.5,1.3-0.2,2.5,1,3.8c-0.1,0.3-1.4,0.4-2.2,0c0.2,1,0.9,1.3-0.6,2.1
						c-0.8-1.2-1.1-0.1-0.5-1.1c-0.9,0.8-2.1,0.6-0.7,2.4c-1.5-1-2.4-0.2-2.1,0.5l1.5-0.2c0,0.6-0.4,1-0.7,1.4l-2-1.3
						c-1.7,0.3-1.1,1.6-0.7,2.9c0.4,1.3,0.6,2.4-1.9,1.8c1.1,1.4,1.6-0.4,2.9,1.1c-0.8,0.7-4.2-0.3-4.3-0.1c-1.8,0.3,2,3,0.4,3.6
						c0.8,0.4,2.6,1.6,2.5,3c-1,0.6-3.5-1.3-3.6-2.2c0.1-0.2,0.4-0.1,0.6,0.1c0-0.4,0-1-1-1.3l0.6,0.6c-1-0.2-1.8,0.9-2.6-0.3
						c0.1,1,0.8,1.1,1.5,1c-1.7,0.1-1.4,1.4-2.8,1.7c0.5,0.2,1.3,0.8,1.1,0.9c-2.1,0.5,0.4,1.7-0.3,2.9c-1.4-0.5-1.8-2.5-2.1-0.8
						c-1.1-0.2-1.5-1.6-1.7-2.3c0.1,1-0.5,1.1-1.1,0.9c-0.7-0.1-1.4-0.5-1.7-0.5c0-0.3,0.1-0.6,0.1-0.9c0,0.5-0.3,0.6-0.5,0.8
						l1.2,1.2c-0.4-0.1-0.7,0.1-1.1-0.5c0.3,1.1,1.8,2.1,1.9,3.8c-0.8-0.5-0.8,1.5-2-0.3c1.6-0.1-1.2-1.9-0.4-2.7
						c0,0.3-0.3,0.5-0.7,0.4c-0.2-0.2-0.2-0.4-0.2-0.6c-2-1.1,0.7,2.5-0.5,3c-0.4-1.2-1.3-2-1.4-1.7c0.5-0.2,1.1,1.8,1,2.9
						c-1.2-0.5-0.6,1.1-1.1,1.1c0.2,0.1,0.4,0.1,0.7,0.2c0.3,1.2-0.2,1.3-0.7,1.9c-0.4-0.9,0.4-0.8,0-1.1c0,1.1-0.6,0.8-1.2,0.3
						c-0.6-0.5-1.3-1.1-1.5-0.2c-0.6-0.7-0.6-2.3-1.1-2.7c-0.3,0.9-0.7,0.5-1,0.1c-0.3-0.4-0.7-0.8-1-0.1c0.5,1.6,0.6,1.2,0,2.9
						c0.6-0.5,1.1-0.9,1.6-1.4c-0.2,0.9-0.5,1.8-0.8,2.6c0.6-0.1,1-1.3,1.4-1c-0.3,1.4-0.3,1,0.2,2.3c-0.7-1.2-1-0.7-1.3-0.2
						c-0.3,0.5-0.8,1.2-1.3,0.4l-0.3-4.1c-0.7-0.9-1.1-0.3-1.7,0.3c-0.3,0.3-0.6,0.7-0.9,0.8c-0.3,0.2-0.7,0.2-1.1-0.1
						c0.1,0.3,0.3,0.5,0.4,0.8c-0.4,1.6-1,0.1-1.7,0.7c0.3-1.4,0.1-1.9,0.1-2.8c-0.2,1-0.9-0.3-1.9,2.3c-0.1-0.6-0.1-1.3,0-1.9
						c-0.4-0.5-1.1,0.2-1.8,1c-0.4,0.4-0.8,0.8-1.2,1c-0.4,0.2-0.7,0.2-1-0.1c1.1-1.1,1.1-2.2,2.3-2.7c-0.3-0.2-0.5-0.6-1,0.2
						c0.1-0.4-0.3-0.2-0.8,0s-1,0.3-0.7-0.4c-0.5,0.4-1.4,1.5-1.8,1c0.1-0.3,0.4-0.5,0.4-0.5c-0.4,0.5-1.3,0.2-1.9,1.6
						c0.8-2.1,0.1-2.7-0.7-3.4c-0.8-0.7-1.6-1.4-0.5-3c-1-0.6-2.1-1.4-2.7-2.3c0.4-0.1,0.6-0.3,0.6-0.1c0.5-1.8-3.9,1.2-3.4-1
						c1.6-1.8,1.5,0.2,2-0.6c2-1.1,1.6-1.5,1-1.8c-0.6-0.4-1.5-0.7-0.4-1.7l0.3,0.1c0.6-0.7,0-0.9-0.8-1.2c-0.7-0.3-1.7-0.6-1.8-1.3
						c0,0,0.4-0.1,0.7-0.2c-2.5,0-3.8-1.6-4.8-2.7c1.8-0.1,1.1,0.3,2.7-0.5c-0.4-0.5-2.7,1.1-3.6,0c0.8-0.7,1.3-1.8,3.2-2.4
						c0.1,0.4,0.3,0.7,0.4,1.1c2.2-1.3-0.5-1.4-0.3-2.1l1.1-0.2c-0.8-1.6-3.4-0.9-3.8-2.8l-0.8,0.4c-2.9-0.4,1.3-1.2-0.9-1.8
						l2.6-0.9c-0.8-0.5-3.2-1.8-3.9-2.9c2.1,0.3,3.5,1.5,4.9,2.1c-0.1-0.7-0.7-2.2-2.1-2.3c0.3,0.2,1,0.4,0.7,0.8
						c-2.3-0.4-3.6-1.3-3.8-2.6c2.7-0.4,2.8-1.3,2.8-2.4c0-1.1-0.1-2.3,1.8-3.1c-2.4-2.1,0.1-4.8-0.6-7.6c-4,1.5-0.2-0.8-4.4-0.1
						c-0.4-0.6-0.3-0.9-0.1-1l2.3-2.3c1.2-0.6,1,0.5,2,0.3c0.2-1.5,1.7-0.8,2.7-1.9c-1.5,0.4-2.2-0.3-1.8-1.1l-1.8,1.4
						c-2.5-1.8,3.4-2.2,0.9-3.9l1.4,0.5c-0.9-0.9-0.4-3.9-3.9-4.6c0.5-0.2,1.6-0.6,2-0.2c0.2-2.6-4.3-5.3-2.4-7.5l1.1,0.1
						c-0.4-0.4-2.1-0.6-1.1-1.3c0.4,0,1.1,0.1,1.1-0.2c-0.4-0.2-2-1.1-1.4-1.8l1.2,0.4c1-2.7-3.4-3.5-4.4-5.5c3.1-0.4,3.7-2.6,4-3.7
						l0.4,0c-0.1-1.5-0.9-2.7-2-3.8c-1.1-1.1-2.3-2.1-3.2-3.3c1.4-1.2,1.5-2.7,1.3-4.4c-0.2-1.6-0.7-3.3-0.2-5
						c-0.4,0.6-2.3,0.6-2.8,0.2c0.4-0.8-2.6-1.2,0.2-1.9l0,0.3c2.5-1.3,1.4-2.5,1-3.7l-3.6,1.1c2-2.3,0.7-4.2-0.7-5.8
						c-1.5-1.6-3-2.7-1.7-5c-1.3-0.2-2.1-1.1-3.3-1.1l1.5-1.4c-0.8-1.2-1.4-2-2.3-2.7c-0.9-0.8-1.9-1.4-3.7-2.1
						c0.4-0.3,0.9-0.6,1.3-0.9c-0.9-0.6-2.2,0.4-3.3,1.5c-1.1,1.1-2.2,2.3-2.9,2.1c0.1-1,0.3-2,0.3-3c-1.7-0.5-3.4-1.3-5.4-1.6
						c-1.9-0.3-4,0.1-5.2,1.9c-0.1-0.4-0.2-1.3,0.3-1.5c-0.8,0.2-2.6,0.2-3.7,0.8c-1.2,0.5-1.7,1.5-0.5,3.1c-0.6-1.2-1.4-0.8-2,0
						c-0.6,0.8-1,2.2-1.2,3.1l-1-1.7c0.5,2.7,0.9,3.3,0.2,4.8c-0.4,0-1.2-1-0.5-0.9c-1.6,0,0.5,2-1.2,2.1l-0.5-1.3
						c-1,0.7-0.5,1.1,0.1,2.6c0,1.1-1.9,1.1-3.3,0c0.6,0.9,1.2,2.3,0.3,2.5c-0.5-0.4-0.7-0.9-0.7-1.1c-2.3,0.5-0.4,3.6-2.7,3.3
						c-0.5-0.4-0.8-0.6-1-0.6c1.1-1.1,2.1-1.9,2.1-1.7c-1.3-1.3-2.4-0.6-3.5-3c0.1,0.8,0.4,2.1,0.5,3.2c0.1,1.1,0,2-0.8,2.2
						c-0.2-0.1-0.3-0.1-0.6-0.3l-0.1-0.2c-0.3,0.1-0.4,0.4-0.3,0.8c-0.5,0.1-0.8,0.1-1.1,0.4c-1.2-0.9-1.6,0.6-2,1
						c1.5,1.2,0.8,1.7,2.5,2.1c-0.2,0-0.1-0.2,0.1-0.6c0-0.1,0.1-0.2,0-0.3c0,0,0.1,0.1,0.1,0.2c0.2-0.3,0.5-0.8,0.9-1.3
						c0.4,1,0.7,2-0.5,1.8c0.8,1.1,1.5,2.2,1.9,2.7c-2.6-1.1-4.9-0.8-6.3-1.7c-0.3,2.2-2.3,4.1,0.1,7.2c0.1,0.7-1.2-0.1-1.8-0.3
						c-0.1-0.5,0.1-0.7-0.2-1.2c0.2,1.4-1.6,2.8,0.5,4.5c-1.7,0.5-1.6-2-2.2-0.2l-0.5-0.6c-2.7,0.4-2.2,2.6-1.7,4.7
						c0.3,1.1,0.5,2.1,0.2,2.9c-0.2,0.8-0.9,1.4-2.6,1.7c0.4-0.1,0.6-0.2,1,0c-2.1,1.5-2.7,3.9-3.3,6.2c-0.3,1.2-0.6,2.3-1.2,3.3
						s-1.3,2-2.6,2.7c-1.2,1,0.3,1.7,1.3,2.8l-2.1-0.4l1.9,2.1c0.6,1.2-1,1.5-2.2,2.1c-1.3,0.5-2.4,1.3-1.1,2.9l1.5,0.1
						c-0.5,0.8,0.1,2.8-1.4,2.3c0.2,0.2,1.4,0.6,0.6,0.8l-1.1-0.2l1.4,2.5c-1.1,1.4-4.2-1.2-4.9,1.2c0.2,1,2.7,3.1,3.5,2.9
						c0.1-0.3,0.9-0.8,2-0.6l0.4,0.9c3.2,0.7,6.4,1.8,8.9,0.4l-1.7-1.6l1.6-0.1l-0.1,1c1.6-0.3,0.4-0.9-0.5-1.5
						c0.8,0.1,1.4,0,1.8-0.2c-0.9-0.6-1.8-1.2-2.8-1.9c1.3,0.1,2.3,1.1,3.2,0.4c-1.3-0.9-2.9-0.1-3.6-1.3c1.6-0.3,2.7,0.2,1.6-0.8
						c0.8,0.1,1.3,0.4,1.6,0.7c-0.8-0.8,0-1.7-1.6-2.4c1.9-0.1,0.1-2.2,3.1-1.3c-0.7-0.4-2-1.8-2-2.3c3.2,2.1,0.9-2,4.6-0.5
						c-1.5-0.9-1.6-1.7-1.5-2.4c0.1-0.8,0.4-1.6-0.2-2.5c0.2,0.2,0.7,0.5,0.5,0.6c0.5-0.6,1.5-0.5,2.3-0.7c-2.5-1.1-2.6-2.4-3.9-3.7
						c2.8,0.2,2.7,1.8,5.2,2.5c-2.1-0.8-1.4-2.4-3.2-2.8c1.8,0,1-0.3,3.2,0.3c-3.1-1.5-0.3-0.8-1.9-2.3c2-0.2,3,1.1,2.6-0.3
						C41.5,82,42.2,83.4,42.2,83.4z M52.5,57.7C52.5,57.7,52.5,57.7,52.5,57.7c-0.1,0.2-0.2,0.4-0.3,0.5
						C52.2,58.1,52.3,57.9,52.5,57.7z M54,55.9c-0.3,0.2-0.5,0.4-0.8,0.7c-0.5-0.4-1-1-0.8-1.1C52.7,55.9,53.4,55.7,54,55.9z
						 M40.4,50.7c0.1-0.5,0.5-0.4,0.8-0.1c-0.1,0.2-0.2,0.4-0.3,0.7c0,0,0.1,0.1,0.2,0.2C40.7,51.2,40.5,50.9,40.4,50.7z"/>
					<path class="st1" d="M41.8,52.9c0,0.1,0,0.2,0,0.2c0.2,0,0.3,0.1,0.5,0.1c-0.1-0.2-0.3-0.3-0.4-0.5
						C41.9,52.8,41.9,52.9,41.8,52.9z"/>
					<path class="st1" d="M155.8,117.9L155.8,117.9c0,0,0.1,0,0.2,0C156,117.9,155.9,117.9,155.8,117.9z"/>
					<polygon class="st1" points="71.4,52.4 71.8,52.1 71.4,52.3 					"/>
					<path class="st1" d="M163,104.4c0.2,0,0.4-0.1,0.5-0.2C163.4,104.2,163.2,104.2,163,104.4z"/>
					<path class="st1" d="M162.8,98.1l0.6-1C163,97.6,162.9,97.9,162.8,98.1z"/>
					<path class="st1" d="M162.9,93.1c-0.4,0-0.6,0.1-0.9,0.1c0,0,0,0,0,0L162.9,93.1z"/>
					<path class="st1" d="M134.9,162.9c-0.1,0-0.1,0.1-0.2,0.2C134.4,163.6,134.6,163.4,134.9,162.9z"/>
					<path class="st1" d="M151.2,144.5c0.1,0.4,0.3,0.8,0.3,1.1C151.8,145.5,152.1,145.2,151.2,144.5z"/>
					<path class="st1" d="M103.3,161.9C103.3,161.9,103.3,161.9,103.3,161.9c-0.1-0.1-0.1-0.1-0.2-0.2L103.3,161.9z"/>
					<path class="st1" d="M150.8,146.5c0.6-0.1,0.7-0.4,0.7-0.8C151.1,145.9,150.7,146.1,150.8,146.5z"/>
					<path class="st1" d="M154.6,72.5c0-0.1-0.1-0.2-0.1-0.3c-0.1,0.1-0.2,0.1-0.3,0.2L154.6,72.5z"/>
					<path class="st1" d="M154.2,72.4l-0.4-0.1C153.9,72.4,154,72.5,154.2,72.4z"/>
					<path class="st1" d="M153.1,72.2l0.8,0.1C153.7,72.2,153.6,71.9,153.1,72.2z"/>
					<path class="st1" d="M157.8,78.9l0.7-0.3C158.3,78.6,158,78.7,157.8,78.9z"/>
					<path class="st1" d="M158.9,80.6c-0.1-0.5,0.8-1.8,0.1-2.2l-0.5,0.2C159.5,78.4,157.6,80.7,158.9,80.6z"/>
					<path class="st1" d="M153.5,91.1c0-0.5,0.1-1,0.1-1.6c-0.6,0.5-1.5,1.1-1.9,0.5C150.1,92.4,153.2,89.2,153.5,91.1z"/>
					<path class="st1" d="M153.5,95.7c-0.5-0.7-1.1,0.2-1.5,0.3C152.8,96.3,152.9,96.4,153.5,95.7z"/>
					<path class="st1" d="M152,127.3l-1.7-0.7C150.4,127.2,151,126.9,152,127.3z"/>
					<path class="st1" d="M158,136.9l1.3-0.1l-1.4-1C158,136.2,158,136.5,158,136.9z"/>
					<polygon class="st1" points="145,134.1 144.9,133.8 145,134.9 					"/>
					<path class="st1" d="M110.2,144.7l-1.6,1.5C109.1,146.2,111,144.7,110.2,144.7z"/>
					<path class="st1" d="M99.6,125.3c1-0.5,1.6-1.3,0.4-1.5C100,124.4,99.3,125.1,99.6,125.3z"/>
					<polygon class="st1" points="89.9,49.8 90.8,50.1 89.8,49.2 					"/>
				</g>
			</g>
		</g>
	</g>
</g>
</svg>
